# xmcd CD database file generated by Grip 2.96
# 
# Track frame offsets:
#       150
#       15050
#       28865
#       39207
#       48992
#       63790
#       77760
#       87900
#       99277
#       112175
#       125122
#       136680
# 
# Disc length: 2053 seconds
# 
# Revision: 0
# Processed by: cddbd v1.4PL0 Copyright (c) Steve Scherf et al.
# Submitted via: Grip 2.96
# 
DISCID=8a08030c
DTITLE=Jim Brooks - Sittin' On Top Of The World
DYEAR=1900
DGENRE=
TTITLE0=Pike County Breakdown
TTITLE1=Little Log Cabin in the Lane
TTITLE2=I'll Take the Blame
TTITLE3=Foggy Mountain Breakdown
TTITLE4=I Still Miss Someone
TTITLE5=Where the Soul Never Dies
TTITLE6=On My Way Back to the Old Home
TTITLE7=Yellow Rock
TTITLE8=Sittin' On Top of the World
TTITLE9=I Wonder Why You Said Goodbye
TTITLE10=Long Gone
TTITLE11=Life's Railway to Heaven
EXTD=
EXTT0=
EXTT1=
EXTT2=
EXTT3=
EXTT4=
EXTT5=
EXTT6=
EXTT7=
EXTT8=
EXTT9=
EXTT10=
EXTT11=
PLAYORDER=
